<?xml version="1.0" encoding="utf-8"?>

<svg version="1.0"
	 id="svg1" xmlns:sodipodi="http://sodipodi.sourceforge.net/DTD/sodipodi-0.dtd" xmlns:svg="http://www.w3.org/2000/svg" xmlns:inkscape="http://www.inkscape.org/namespaces/inkscape"
	 xmlns="http://www.w3.org/2000/svg" xmlns:xlink="http://www.w3.org/1999/xlink" x="0px" y="0px" viewBox="0 0 1440 1440"
	 style="enable-background:new 0 0 1440 1440;" xml:space="preserve">
<style type="text/css">
	.st0{fill:#CF022F;}
	.st1{clip-path:url(#SVGID_00000150093819104341161190000004640429747796213408_);}
	.st2{clip-path:url(#SVGID_00000047026293459399456040000002691998508031273119_);}
	.st3{clip-path:url(#SVGID_00000039108126569056094330000003635240235706967198_);}
	.st4{clip-path:url(#SVGID_00000055685710714192960500000007132025510640571557_);}
	.st5{clip-path:url(#SVGID_00000173156933113426952820000002730841668661783952_);}
	.st6{clip-path:url(#SVGID_00000158029991422657303990000016345239287889292452_);}
</style>
<sodipodi:namedview  bordercolor="#000000" borderopacity="0.25" id="namedview1" inkscape:deskcolor="#d1d1d1" inkscape:pagecheckerboard="0" inkscape:pageopacity="0.0" inkscape:showpageshadow="2" pagecolor="#ffffff">
	<inkscape:page  bleed="0" height="1440" id="page1" inkscape:label="1" margin="271.51999 165.59866" width="1440" x="0" y="0">
		</inkscape:page>
</sodipodi:namedview>
<path id="path1" class="st0" d="M288.7,410.6h-114v-49h199.5v49L251.1,549.3h131.8v49H165.5v-49L288.7,410.6L288.7,410.6z"/>
<g>
	<defs>
		<rect id="SVGID_1_" width="1440" height="1440"/>
	</defs>
	<clipPath id="SVGID_00000079482928580867420450000005485689243505890953_">
		<use xlink:href="#SVGID_1_"  style="overflow:visible;"/>
	</clipPath>
	<g style="clip-path:url(#SVGID_00000079482928580867420450000005485689243505890953_);">
		<path id="path2" class="st0" d="M551.1,417c-7.8-8.5-19.6-12.8-35.5-12.8s-19,1.7-25.9,5.3c-6.9,3.5-12.3,7.8-16.5,13
			c-4.1,5.2-7,10.7-8.7,16.5s-2.7,11-3,15.5h105.7c-3.1-16.5-8.5-29-16.3-37.5 M477.7,541.5c9.7,9.5,23.8,14.2,42.1,14.2
			s24.4-3.3,33.9-9.9c9.4-6.6,15.2-13.5,17.3-20.8h57.3c-9.2,28.4-23.2,48.7-42.1,60.9c-18.9,12.2-41.8,18.3-68.7,18.3
			s-35.4-3-50.3-8.9c-14.9-6-27.6-14.4-38-25.4s-18.4-24.1-24-39.3c-5.6-15.3-8.5-32-8.5-50.3s2.9-34.2,8.7-49.4
			c5.8-15.2,14-28.4,24.7-39.6c10.7-11.1,23.4-19.9,38.2-26.3c14.8-6.4,31.2-9.6,49.2-9.6s37.7,3.9,52.6,11.7
			c14.9,7.8,27.2,18.2,36.9,31.4c9.6,13.1,16.5,28.1,20.8,44.8c4.3,16.8,5.8,34.3,4.6,52.6H461.7c0.9,21.1,6.2,36.3,16,45.8"/>
	</g>
</g>
<g>
	<defs>
		<rect id="SVGID_00000014601968713810569900000012191067393909320885_" width="1440" height="1440"/>
	</defs>
	<clipPath id="SVGID_00000031181789288072949970000015586928227196613517_">
		<use xlink:href="#SVGID_00000014601968713810569900000012191067393909320885_"  style="overflow:visible;"/>
	</clipPath>
	<g style="clip-path:url(#SVGID_00000031181789288072949970000015586928227196613517_);">
		<path id="path4" class="st0" d="M805.4,536.9c7-3.7,12.8-8.5,17.4-14.7c4.6-6.1,8-13,10.3-20.8s3.5-15.9,3.5-24.5
			s-0.9-19-2.8-27.7c-1.8-8.7-4.9-16.4-9.1-23.1c-4.3-6.7-9.9-12.1-17-16c-7-4-15.9-6-26.5-6s-17,1.8-23.6,5.5s-12,8.6-16.5,14.9
			c-4.4,6.2-7.6,13.5-9.6,21.5c-2,8.1-3,16.6-3,25.4s0.9,17,2.5,25.4c1.7,8.4,4.6,15.9,8.7,22.6c4.1,6.7,9.6,12.2,16.3,16.5
			s15.1,6.4,25.2,6.4s17.2-1.8,24.3-5.5 M894.4,615.6c-2.6,12.2-8.2,23.6-16.7,34.1c-8.6,10.5-20.9,19.4-37.1,26.8
			c-16.2,7.3-37.8,11-65,11s-23.4-1.4-35.5-4.3c-12.1-2.9-23-7.4-33-13.5c-9.9-6.1-18.2-13.9-24.7-23.6
			c-6.6-9.6-10.3-21.1-11.2-34.5h64.5c3.1,12.2,9,20.7,17.8,25.4c8.9,4.7,19.1,7.1,30.7,7.1c18.3,0,31.7-5.5,40.1-16.5
			c8.4-11,12.4-24.8,12.1-41.6v-31.1h-0.9c-7,12.5-17,21.7-30,27.7s-26.6,8.9-41,8.9s-33-3.1-45.8-9.4
			c-12.8-6.3-23.3-14.8-31.6-25.6c-8.2-10.8-14.3-23.5-18.1-38s-5.7-29.8-5.7-46s2.2-30,6.6-44.2c4.4-14.2,10.9-26.7,19.5-37.5
			c8.5-10.8,19.1-19.4,31.8-25.9c12.7-6.4,27.2-9.6,43.7-9.6s29.2,2.9,41,8.7c11.7,5.8,21.6,15.6,29.5,29.3h0.9v-31.6h61.8v221.5
			c0,9.5-1.3,20.3-3.9,32.5"/>
	</g>
</g>
<g>
	<defs>
		<rect id="SVGID_00000077309057318107213010000004894020678679038652_" width="1440" height="1440"/>
	</defs>
	<clipPath id="SVGID_00000003800471132829642620000010630482396721203094_">
		<use xlink:href="#SVGID_00000077309057318107213010000004894020678679038652_"  style="overflow:visible;"/>
	</clipPath>
	<g style="clip-path:url(#SVGID_00000003800471132829642620000010630482396721203094_);">
		<path id="path6" class="st0" d="M1087.9,417c-7.8-8.5-19.6-12.8-35.5-12.8s-19,1.7-25.9,5.3c-6.9,3.5-12.4,7.8-16.5,13
			s-7,10.7-8.7,16.5s-2.7,11-3,15.5H1104c-3.1-16.5-8.5-29-16.3-37.5 M1014.5,541.5c9.8,9.5,23.8,14.2,42.1,14.2s24.4-3.3,33.8-9.9
			c9.5-6.6,15.3-13.5,17.4-20.8h57.2c-9.2,28.4-23.2,48.7-42.1,60.9s-41.8,18.3-68.7,18.3s-35.4-3-50.4-8.9
			c-14.9-6-27.6-14.4-38-25.4s-18.4-24.1-24.1-39.3c-5.6-15.3-8.5-32-8.5-50.3s2.9-34.2,8.7-49.4c5.8-15.2,14-28.4,24.7-39.6
			c10.7-11.1,23.4-19.9,38.2-26.3s31.2-9.6,49.2-9.6s37.7,3.9,52.6,11.7c14.9,7.8,27.2,18.2,36.8,31.4c9.6,13.1,16.6,28.1,20.8,44.8
			c4.3,16.8,5.8,34.3,4.6,52.6H998.1c0.9,21.1,6.2,36.3,16,45.8"/>
	</g>
</g>
<g>
	<defs>
		<rect id="SVGID_00000036969841470830239950000003311557829478676368_" width="1440" height="1440"/>
	</defs>
	<clipPath id="SVGID_00000163074679179693117130000016719993435906721670_">
		<use xlink:href="#SVGID_00000036969841470830239950000003311557829478676368_"  style="overflow:visible;"/>
	</clipPath>
	<g style="clip-path:url(#SVGID_00000163074679179693117130000016719993435906721670_);">
		<path id="path8" class="st0" d="M1274.4,598.3h-65V271.6h65V598.3z"/>
	</g>
</g>
<g>
	<defs>
		<rect id="SVGID_00000115477778224277737880000013224461288355110818_" width="1440" height="1440"/>
	</defs>
	<clipPath id="SVGID_00000015345442394706338730000013668246868506439336_">
		<use xlink:href="#SVGID_00000115477778224277737880000013224461288355110818_"  style="overflow:visible;"/>
	</clipPath>
	<g style="clip-path:url(#SVGID_00000015345442394706338730000013668246868506439336_);">
		<path id="path10" class="st0" d="M775.6,906.8l-37.2,104.8h74l-36-104.8H775.6z"/>
	</g>
</g>
<g>
	<defs>
		<rect id="SVGID_00000017513637908076864410000005220317512756837535_" width="1440" height="1440"/>
	</defs>
	<clipPath id="SVGID_00000139264294966243863730000004506488406411331221_">
		<use xlink:href="#SVGID_00000017513637908076864410000005220317512756837535_"  style="overflow:visible;"/>
	</clipPath>
	<g style="clip-path:url(#SVGID_00000139264294966243863730000004506488406411331221_);">
		<path id="path12" class="st0" d="M549.6,893c-5.1-3.1-11-5.1-17.6-6.2c-6.7-1.1-13.6-1.6-20.8-1.6h-48.8v85.6h48.8
			c7.2,0,14.1-0.5,20.8-1.6c6.6-1,12.5-3.1,17.6-6.2c5.1-3.1,9.1-7.4,12.2-13c3.1-5.6,4.6-12.9,4.6-22s-1.5-16.4-4.6-22
			C558.8,900.4,554.7,896.1,549.6,893"/>
	</g>
</g>
<path id="path14" class="st0" d="M1157.1,1121.9H940.4V836.3H1154v52.8h-150.8v61.2h138.4v48.8h-138.4v70h154L1157.1,1121.9
	L1157.1,1121.9z M850.4,1121.9l-21.6-63.6H722l-22.4,63.6h-63.2l108-285.6h64.4l106.8,285.6H850.4z M621.8,961.8
	c-3.6,11.1-9.3,20.9-17.2,29.4s-18.1,15.4-30.6,20.6c-12.5,5.2-27.7,7.8-45.6,7.8h-66V1122h-62.8V836.4h128.8
	c17.9,0,33.1,2.6,45.6,7.8c12.6,5.2,22.7,12.1,30.6,20.6c7.9,8.5,13.6,18.3,17.2,29.2c3.6,11,5.4,22.3,5.4,34
	S625.4,950.7,621.8,961.8 M344.4,1121.9h-62.8V836.3h62.8V1121.9z M165.6,1168.5h1108.8V789.8H165.6V1168.5z"/>
</svg>
